<svg width="12" height="16" viewBox="0 0 12 16" fill="none" xmlns="http://www.w3.org/2000/svg">
<path fill-rule="evenodd" clip-rule="evenodd" d="M11.3918 6.515C11.6273 4.943 10.4295 4.09775 8.79305 3.53375L9.32405 1.40375L8.02805 1.08125L7.51055 3.155C7.17713 3.07128 6.83509 2.99331 6.49357 2.91546L6.49354 2.91546L6.4718 2.9105L6.99305 0.82325L5.69705 0.5L5.16605 2.62925L5.10936 2.61629C4.84686 2.55628 4.58854 2.49722 4.33805 2.43425L4.33955 2.4275L2.55155 1.98125L2.20655 3.36575C2.20655 3.36575 3.1688 3.58625 3.14855 3.59975C3.67355 3.731 3.76805 4.07825 3.7523 4.35425L3.1478 6.7805C3.1838 6.7895 3.2303 6.803 3.2828 6.82325L3.14555 6.7895L2.29805 10.1885C2.23355 10.3475 2.0708 10.5868 1.7033 10.496C1.7168 10.5148 0.761298 10.2612 0.761298 10.2612L0.117798 11.7448L1.8053 12.1655C1.98642 12.211 2.16554 12.2577 2.34281 12.304L2.34309 12.3041L2.34322 12.3041C2.47264 12.3379 2.60106 12.3714 2.72855 12.404L2.1923 14.558L3.48755 14.8805L4.01855 12.7505C4.37255 12.8457 4.71605 12.9343 5.05205 13.0183L4.52255 15.1392L5.81855 15.4618L6.3548 13.3123C8.5658 13.7308 10.2278 13.562 10.9275 11.5625C11.4915 9.953 10.8998 9.02375 9.73655 8.4185C10.584 8.2235 11.2215 7.66625 11.3918 6.515ZM8.42931 10.6685C8.06261 12.1457 5.75071 11.535 4.69248 11.2555C4.59714 11.2303 4.51197 11.2078 4.43931 11.1897L5.15181 8.336C5.24042 8.35815 5.34872 8.38248 5.47141 8.41004L5.47148 8.41006C6.56607 8.65596 8.8063 9.15922 8.42931 10.6685ZM5.69126 7.08534C6.57306 7.32077 8.4958 7.83412 8.83054 6.49175C9.17294 5.11877 7.30379 4.70528 6.3908 4.50331C6.28788 4.48054 6.19712 4.46046 6.12304 4.442L5.47804 7.0295C5.53913 7.04473 5.61087 7.06388 5.69126 7.08534Z" fill="white"/>
</svg>
