<svg width="175" height="159" viewBox="0 0 175 159" fill="none" xmlns="http://www.w3.org/2000/svg">
<g filter="url(#filter0_d_410_73623)">
<path d="M29.5514 67.9826C26.6926 57.3133 33.0242 46.3465 43.6935 43.4877L99.4865 28.538L120.222 105.926L64.4295 120.875C53.7601 123.734 42.7934 117.402 39.9346 106.733L29.5514 67.9826Z" fill="#272727"/>
<path d="M57.6628 80.9468L53.3832 88.644L45.7713 84.1332L50.0912 76.3668L57.6628 80.9468ZM68.1266 62.1352L81.1376 69.9269L85.4603 62.1623L64.8368 49.8575L53.1433 70.8799L60.7691 75.4429L68.1266 62.1352ZM90.8615 65.4425L86.5943 73.1946L94.2186 77.7605L98.5364 69.9948L90.8615 65.4425ZM76.1305 92.0063L63.1049 84.1602L58.7828 91.9271L79.4203 104.284L91.1138 83.2615L83.488 78.6985L76.1305 92.0063ZM73.7668 83.1846L78.0861 75.4161L70.477 70.9069L66.1564 78.671L73.7662 83.1824L73.7668 83.1846Z" fill="#F0B90B"/>
<path d="M99.4856 28.5391L155.279 13.5894C165.948 10.7305 176.915 17.0622 179.774 27.7315L190.157 66.482C193.016 77.1514 186.684 88.1181 176.015 90.977L120.222 105.927L99.4856 28.5391Z" fill="#D9E0E9"/>
<g clip-path="url(#clip0_410_73623)">
<path d="M161.998 59.1736C165.116 58.3382 166.99 55.2243 166.184 52.2184C165.379 49.2125 162.199 47.4529 159.081 48.2883C155.964 49.1236 154.09 52.2375 154.895 55.2434C155.7 58.2493 158.881 60.0089 161.998 59.1736Z" fill="#0E46C0"/>
<path d="M147.698 39.6711C144.58 40.5064 142.706 43.6204 143.511 46.6262C143.695 47.3104 144.001 47.93 144.402 48.4691C146.395 51.1517 150.154 53.0699 151.014 56.2826C151.875 59.4954 149.579 63.0359 149.194 66.3557C149.117 67.023 149.161 67.7127 149.345 68.3968C150.15 71.4027 153.33 73.1623 156.448 72.3269C159.565 71.4916 161.44 68.3776 160.634 65.3718C160.451 64.6877 160.145 64.0681 159.744 63.5289C157.751 60.8464 153.992 58.9283 153.131 55.7154C152.27 52.5027 154.566 48.9623 154.951 45.6423C155.029 44.9752 154.984 44.2854 154.801 43.6012C153.995 40.5953 150.815 38.8358 147.698 39.6711Z" fill="#0E46C0"/>
<path d="M136.313 31.0559C133.196 31.8912 131.322 35.0051 132.127 38.011C132.31 38.6952 132.617 39.3148 133.017 39.8539C135.011 42.5364 138.769 44.4546 139.63 47.6674C140.491 50.8803 138.195 54.4205 137.81 57.7405C137.733 58.4076 137.777 59.0973 137.96 59.7816C138.144 60.4658 138.45 61.0854 138.851 61.6245C140.844 64.3071 144.603 66.2251 145.463 69.438C146.324 72.6508 144.028 76.1913 143.643 79.511C143.566 80.1782 143.61 80.8679 143.794 81.5522C144.599 84.558 147.779 86.3176 150.897 85.4823C154.014 84.647 155.889 81.533 155.083 78.5272C154.9 77.8429 154.594 77.2234 154.193 76.6843C152.2 74.0018 148.441 72.0836 147.58 68.8708C146.719 65.6579 149.015 62.1177 149.4 58.7977C149.478 58.1305 149.433 57.4408 149.25 56.7566C149.066 56.0723 148.76 55.4528 148.36 54.9137C146.366 52.2311 142.608 50.3131 141.747 47.1002C140.886 43.8874 143.182 40.347 143.567 37.0271C143.644 36.3599 143.6 35.6702 143.416 34.986C142.611 31.9801 139.431 30.2205 136.313 31.0559Z" fill="#0E46C0"/>
<path d="M130.762 44.2102C127.645 45.0455 125.77 48.1594 126.576 51.1653C126.759 51.8495 127.066 52.4691 127.466 53.0081C129.46 55.6908 133.218 57.609 134.079 60.8217C134.94 64.0345 132.644 67.575 132.259 70.8947C132.182 71.5621 132.226 72.2518 132.409 72.9359C133.215 75.9417 136.395 77.7013 139.512 76.866C142.63 76.0307 144.504 72.9167 143.699 69.9108C143.515 69.2268 143.209 68.6072 142.809 68.068C140.815 65.3855 137.057 63.4673 136.196 60.2545C135.335 57.0418 137.631 53.5013 138.016 50.1814C138.093 49.5142 138.049 48.8245 137.865 48.1403C137.06 45.1344 133.88 43.3748 130.762 44.2102Z" fill="#0E46C0"/>
<path d="M128.129 68.2497C131.247 67.4144 133.121 64.3005 132.316 61.2946C131.51 58.2887 128.33 56.5291 125.212 57.3644C122.095 58.1998 120.221 61.3137 121.026 64.3196C121.832 67.3255 125.012 69.0851 128.129 68.2497Z" fill="#0E46C0"/>
</g>
</g>
<defs>
<filter id="filter0_d_410_73623" x="0.375" y="0.412109" width="218.959" height="165.639" filterUnits="userSpaceOnUse" color-interpolation-filters="sRGB">
<feFlood flood-opacity="0" result="BackgroundImageFix"/>
<feColorMatrix in="SourceAlpha" type="matrix" values="0 0 0 0 0 0 0 0 0 0 0 0 0 0 0 0 0 0 127 0" result="hardAlpha"/>
<feOffset dy="16"/>
<feGaussianBlur stdDeviation="12"/>
<feColorMatrix type="matrix" values="0 0 0 0 0.152941 0 0 0 0 0.152941 0 0 0 0 0.152941 0 0 0 0.05 0"/>
<feBlend mode="normal" in2="BackgroundImageFix" result="effect1_dropShadow_410_73623"/>
<feBlend mode="normal" in="SourceGraphic" in2="effect1_dropShadow_410_73623" result="shape"/>
</filter>
<clipPath id="clip0_410_73623">
<rect width="54.7863" height="57.2268" fill="white" transform="translate(113.544 36.6211) rotate(-15)"/>
</clipPath>
</defs>
</svg>
