<svg width="16" height="15" viewBox="0 0 16 15" fill="none" xmlns="http://www.w3.org/2000/svg">
<path fill-rule="evenodd" clip-rule="evenodd" d="M9.44148 3.56928V5.34378C12.7362 5.49603 15.212 6.14928 15.212 6.93153C15.212 7.71378 12.7362 8.36703 9.44148 8.51853V14.2065H6.50673V8.52003C3.20673 8.36778 0.724976 7.71453 0.724976 6.93153C0.724976 6.14853 3.20673 5.49453 6.50673 5.34303V3.56928H2.44623V0.863281H13.502V3.56928H9.44148ZM9.44145 8.03478V8.03628C12.3515 7.90728 14.5227 7.40103 14.5227 6.79353C14.5227 6.18753 12.3515 5.67978 9.44145 5.55003V7.53228C9.3567 7.53978 8.90295 7.57728 7.9977 7.57728C7.2432 7.57728 6.6972 7.54503 6.5067 7.53153V5.54853C3.5907 5.67903 1.4142 6.18678 1.4142 6.79353C1.4142 7.40103 3.5907 7.90878 6.5067 8.03703V8.03478C6.6942 8.04378 7.22745 8.06628 7.98495 8.06628C8.9337 8.06628 9.35895 8.04078 9.44145 8.03478Z" fill="white"/>
</svg>
